<svg xmlns="http://www.w3.org/2000/svg" version="1.1" xmlns:xlink="http://www.w3.org/1999/xlink" xmlns:svgjs="http://svgjs.com/svgjs" width="1440" height="900" preserveAspectRatio="none" viewBox="0 0 1440 900">
    <g mask="url(&quot;#SvgjsMask2321&quot;)" fill="none">
        <rect width="1440" height="900" x="0" y="0" fill="rgba(38, 40, 53, 1)"></rect>
        <use xlink:href="#SvgjsSymbol2328" x="0" y="0"></use>
        <use xlink:href="#SvgjsSymbol2328" x="0" y="720"></use>
        <use xlink:href="#SvgjsSymbol2328" x="720" y="0"></use>
        <use xlink:href="#SvgjsSymbol2328" x="720" y="720"></use>
    </g>
    <defs>
        <mask id="SvgjsMask2321">
            <rect width="1440" height="900" fill="#ffffff"></rect>
        </mask>
        <path d="M-1 0 a1 1 0 1 0 2 0 a1 1 0 1 0 -2 0z" id="SvgjsPath2323"></path>
        <path d="M-3 0 a3 3 0 1 0 6 0 a3 3 0 1 0 -6 0z" id="SvgjsPath2322"></path>
        <path d="M-5 0 a5 5 0 1 0 10 0 a5 5 0 1 0 -10 0z" id="SvgjsPath2324"></path>
        <path d="M2 -2 L-2 2z" id="SvgjsPath2327"></path>
        <path d="M6 -6 L-6 6z" id="SvgjsPath2325"></path>
        <path d="M30 -30 L-30 30z" id="SvgjsPath2326"></path>
    </defs>
    <symbol id="SvgjsSymbol2328">
        <use xlink:href="#SvgjsPath2322" x="30" y="30" stroke="#1c538e"></use>
        <use xlink:href="#SvgjsPath2323" x="30" y="90" stroke="#1c538e"></use>
        <use xlink:href="#SvgjsPath2324" x="30" y="150" stroke="#1c538e"></use>
        <use xlink:href="#SvgjsPath2324" x="30" y="210" stroke="#1c538e"></use>
        <use xlink:href="#SvgjsPath2325" x="30" y="270" stroke="#1c538e"></use>
        <use xlink:href="#SvgjsPath2326" x="30" y="330" stroke="#1c538e" stroke-width="3"></use>
        <use xlink:href="#SvgjsPath2325" x="30" y="390" stroke="#1c538e"></use>
        <use xlink:href="#SvgjsPath2324" x="30" y="450" stroke="#1c538e"></use>
        <use xlink:href="#SvgjsPath2324" x="30" y="510" stroke="#1c538e"></use>
        <use xlink:href="#SvgjsPath2322" x="30" y="570" stroke="#1c538e"></use>
        <use xlink:href="#SvgjsPath2325" x="30" y="630" stroke="#1c538e"></use>
        <use xlink:href="#SvgjsPath2327" x="30" y="690" stroke="#1c538e"></use>
        <use xlink:href="#SvgjsPath2323" x="90" y="30" stroke="#1c538e"></use>
        <use xlink:href="#SvgjsPath2325" x="90" y="90" stroke="#1c538e"></use>
        <use xlink:href="#SvgjsPath2324" x="90" y="150" stroke="#1c538e"></use>
        <use xlink:href="#SvgjsPath2324" x="90" y="210" stroke="#1c538e"></use>
        <use xlink:href="#SvgjsPath2327" x="90" y="270" stroke="#1c538e"></use>
        <use xlink:href="#SvgjsPath2327" x="90" y="330" stroke="#1c538e"></use>
        <use xlink:href="#SvgjsPath2322" x="90" y="390" stroke="#1c538e"></use>
        <use xlink:href="#SvgjsPath2326" x="90" y="450" stroke="#1c538e" stroke-width="3"></use>
        <use xlink:href="#SvgjsPath2324" x="90" y="510" stroke="#1c538e"></use>
        <use xlink:href="#SvgjsPath2325" x="90" y="570" stroke="#1c538e"></use>
        <use xlink:href="#SvgjsPath2324" x="90" y="630" stroke="#1c538e"></use>
        <use xlink:href="#SvgjsPath2323" x="90" y="690" stroke="#1c538e"></use>
        <use xlink:href="#SvgjsPath2326" x="150" y="30" stroke="#1c538e" stroke-width="3"></use>
        <use xlink:href="#SvgjsPath2327" x="150" y="90" stroke="#1c538e"></use>
        <use xlink:href="#SvgjsPath2326" x="150" y="150" stroke="#1c538e" stroke-width="3"></use>
        <use xlink:href="#SvgjsPath2324" x="150" y="210" stroke="#1c538e"></use>
        <use xlink:href="#SvgjsPath2324" x="150" y="270" stroke="#1c538e"></use>
        <use xlink:href="#SvgjsPath2325" x="150" y="330" stroke="#1c538e"></use>
        <use xlink:href="#SvgjsPath2327" x="150" y="390" stroke="#1c538e"></use>
        <use xlink:href="#SvgjsPath2323" x="150" y="450" stroke="#1c538e"></use>
        <use xlink:href="#SvgjsPath2324" x="150" y="510" stroke="#1c538e"></use>
        <use xlink:href="#SvgjsPath2324" x="150" y="570" stroke="#1c538e"></use>
        <use xlink:href="#SvgjsPath2324" x="150" y="630" stroke="#1c538e"></use>
        <use xlink:href="#SvgjsPath2324" x="150" y="690" stroke="#1c538e"></use>
        <use xlink:href="#SvgjsPath2325" x="210" y="30" stroke="#1c538e"></use>
        <use xlink:href="#SvgjsPath2325" x="210" y="90" stroke="#1c538e"></use>
        <use xlink:href="#SvgjsPath2325" x="210" y="150" stroke="#1c538e"></use>
        <use xlink:href="#SvgjsPath2327" x="210" y="210" stroke="#1c538e"></use>
        <use xlink:href="#SvgjsPath2325" x="210" y="270" stroke="#1c538e"></use>
        <use xlink:href="#SvgjsPath2323" x="210" y="330" stroke="#1c538e"></use>
        <use xlink:href="#SvgjsPath2323" x="210" y="390" stroke="#1c538e"></use>
        <use xlink:href="#SvgjsPath2327" x="210" y="450" stroke="#1c538e"></use>
        <use xlink:href="#SvgjsPath2327" x="210" y="510" stroke="#1c538e"></use>
        <use xlink:href="#SvgjsPath2324" x="210" y="570" stroke="#1c538e"></use>
        <use xlink:href="#SvgjsPath2325" x="210" y="630" stroke="#1c538e"></use>
        <use xlink:href="#SvgjsPath2327" x="210" y="690" stroke="#1c538e"></use>
        <use xlink:href="#SvgjsPath2327" x="270" y="30" stroke="#1c538e"></use>
        <use xlink:href="#SvgjsPath2324" x="270" y="90" stroke="#1c538e"></use>
        <use xlink:href="#SvgjsPath2324" x="270" y="150" stroke="#1c538e"></use>
        <use xlink:href="#SvgjsPath2324" x="270" y="210" stroke="#1c538e"></use>
        <use xlink:href="#SvgjsPath2324" x="270" y="270" stroke="#1c538e"></use>
        <use xlink:href="#SvgjsPath2325" x="270" y="330" stroke="#1c538e"></use>
        <use xlink:href="#SvgjsPath2325" x="270" y="390" stroke="#1c538e"></use>
        <use xlink:href="#SvgjsPath2324" x="270" y="450" stroke="#1c538e"></use>
        <use xlink:href="#SvgjsPath2327" x="270" y="510" stroke="#1c538e"></use>
        <use xlink:href="#SvgjsPath2325" x="270" y="570" stroke="#1c538e"></use>
        <use xlink:href="#SvgjsPath2325" x="270" y="630" stroke="#1c538e"></use>
        <use xlink:href="#SvgjsPath2325" x="270" y="690" stroke="#1c538e"></use>
        <use xlink:href="#SvgjsPath2325" x="330" y="30" stroke="#1c538e"></use>
        <use xlink:href="#SvgjsPath2327" x="330" y="90" stroke="#1c538e"></use>
        <use xlink:href="#SvgjsPath2325" x="330" y="150" stroke="#1c538e"></use>
        <use xlink:href="#SvgjsPath2327" x="330" y="210" stroke="#1c538e"></use>
        <use xlink:href="#SvgjsPath2324" x="330" y="270" stroke="#1c538e"></use>
        <use xlink:href="#SvgjsPath2327" x="330" y="330" stroke="#1c538e"></use>
        <use xlink:href="#SvgjsPath2323" x="330" y="390" stroke="#1c538e"></use>
        <use xlink:href="#SvgjsPath2322" x="330" y="450" stroke="#1c538e"></use>
        <use xlink:href="#SvgjsPath2325" x="330" y="510" stroke="#1c538e"></use>
        <use xlink:href="#SvgjsPath2325" x="330" y="570" stroke="#1c538e"></use>
        <use xlink:href="#SvgjsPath2322" x="330" y="630" stroke="#1c538e"></use>
        <use xlink:href="#SvgjsPath2325" x="330" y="690" stroke="#1c538e"></use>
        <use xlink:href="#SvgjsPath2324" x="390" y="30" stroke="#1c538e"></use>
        <use xlink:href="#SvgjsPath2325" x="390" y="90" stroke="#1c538e"></use>
        <use xlink:href="#SvgjsPath2325" x="390" y="150" stroke="#1c538e"></use>
        <use xlink:href="#SvgjsPath2327" x="390" y="210" stroke="#1c538e"></use>
        <use xlink:href="#SvgjsPath2324" x="390" y="270" stroke="#1c538e"></use>
        <use xlink:href="#SvgjsPath2325" x="390" y="330" stroke="#1c538e"></use>
        <use xlink:href="#SvgjsPath2325" x="390" y="390" stroke="#1c538e"></use>
        <use xlink:href="#SvgjsPath2324" x="390" y="450" stroke="#1c538e"></use>
        <use xlink:href="#SvgjsPath2325" x="390" y="510" stroke="#1c538e"></use>
        <use xlink:href="#SvgjsPath2323" x="390" y="570" stroke="#1c538e"></use>
        <use xlink:href="#SvgjsPath2324" x="390" y="630" stroke="#1c538e"></use>
        <use xlink:href="#SvgjsPath2324" x="390" y="690" stroke="#1c538e"></use>
        <use xlink:href="#SvgjsPath2323" x="450" y="30" stroke="#1c538e"></use>
        <use xlink:href="#SvgjsPath2325" x="450" y="90" stroke="#1c538e"></use>
        <use xlink:href="#SvgjsPath2325" x="450" y="150" stroke="#1c538e"></use>
        <use xlink:href="#SvgjsPath2322" x="450" y="210" stroke="#1c538e"></use>
        <use xlink:href="#SvgjsPath2327" x="450" y="270" stroke="#1c538e"></use>
        <use xlink:href="#SvgjsPath2324" x="450" y="330" stroke="#1c538e"></use>
        <use xlink:href="#SvgjsPath2327" x="450" y="390" stroke="#1c538e"></use>
        <use xlink:href="#SvgjsPath2324" x="450" y="450" stroke="#1c538e"></use>
        <use xlink:href="#SvgjsPath2324" x="450" y="510" stroke="#1c538e"></use>
        <use xlink:href="#SvgjsPath2327" x="450" y="570" stroke="#1c538e"></use>
        <use xlink:href="#SvgjsPath2323" x="450" y="630" stroke="#1c538e"></use>
        <use xlink:href="#SvgjsPath2324" x="450" y="690" stroke="#1c538e"></use>
        <use xlink:href="#SvgjsPath2324" x="510" y="30" stroke="#1c538e"></use>
        <use xlink:href="#SvgjsPath2325" x="510" y="90" stroke="#1c538e"></use>
        <use xlink:href="#SvgjsPath2322" x="510" y="150" stroke="#1c538e"></use>
        <use xlink:href="#SvgjsPath2327" x="510" y="210" stroke="#1c538e"></use>
        <use xlink:href="#SvgjsPath2325" x="510" y="270" stroke="#1c538e"></use>
        <use xlink:href="#SvgjsPath2322" x="510" y="330" stroke="#1c538e"></use>
        <use xlink:href="#SvgjsPath2324" x="510" y="390" stroke="#1c538e"></use>
        <use xlink:href="#SvgjsPath2327" x="510" y="450" stroke="#1c538e"></use>
        <use xlink:href="#SvgjsPath2327" x="510" y="510" stroke="#1c538e"></use>
        <use xlink:href="#SvgjsPath2325" x="510" y="570" stroke="#1c538e"></use>
        <use xlink:href="#SvgjsPath2323" x="510" y="630" stroke="#1c538e"></use>
        <use xlink:href="#SvgjsPath2323" x="510" y="690" stroke="#1c538e"></use>
        <use xlink:href="#SvgjsPath2326" x="570" y="30" stroke="#1c538e" stroke-width="3"></use>
        <use xlink:href="#SvgjsPath2324" x="570" y="90" stroke="#1c538e"></use>
        <use xlink:href="#SvgjsPath2323" x="570" y="150" stroke="#1c538e"></use>
        <use xlink:href="#SvgjsPath2326" x="570" y="210" stroke="#1c538e" stroke-width="3"></use>
        <use xlink:href="#SvgjsPath2323" x="570" y="270" stroke="#1c538e"></use>
        <use xlink:href="#SvgjsPath2325" x="570" y="330" stroke="#1c538e"></use>
        <use xlink:href="#SvgjsPath2322" x="570" y="390" stroke="#1c538e"></use>
        <use xlink:href="#SvgjsPath2327" x="570" y="450" stroke="#1c538e"></use>
        <use xlink:href="#SvgjsPath2325" x="570" y="510" stroke="#1c538e"></use>
        <use xlink:href="#SvgjsPath2325" x="570" y="570" stroke="#1c538e"></use>
        <use xlink:href="#SvgjsPath2326" x="570" y="630" stroke="#1c538e" stroke-width="3"></use>
        <use xlink:href="#SvgjsPath2324" x="570" y="690" stroke="#1c538e"></use>
        <use xlink:href="#SvgjsPath2325" x="630" y="30" stroke="#1c538e"></use>
        <use xlink:href="#SvgjsPath2323" x="630" y="90" stroke="#1c538e"></use>
        <use xlink:href="#SvgjsPath2323" x="630" y="150" stroke="#1c538e"></use>
        <use xlink:href="#SvgjsPath2325" x="630" y="210" stroke="#1c538e"></use>
        <use xlink:href="#SvgjsPath2323" x="630" y="270" stroke="#1c538e"></use>
        <use xlink:href="#SvgjsPath2323" x="630" y="330" stroke="#1c538e"></use>
        <use xlink:href="#SvgjsPath2325" x="630" y="390" stroke="#1c538e"></use>
        <use xlink:href="#SvgjsPath2322" x="630" y="450" stroke="#1c538e"></use>
        <use xlink:href="#SvgjsPath2325" x="630" y="510" stroke="#1c538e"></use>
        <use xlink:href="#SvgjsPath2325" x="630" y="570" stroke="#1c538e"></use>
        <use xlink:href="#SvgjsPath2324" x="630" y="630" stroke="#1c538e"></use>
        <use xlink:href="#SvgjsPath2327" x="630" y="690" stroke="#1c538e"></use>
        <use xlink:href="#SvgjsPath2324" x="690" y="30" stroke="#1c538e"></use>
        <use xlink:href="#SvgjsPath2322" x="690" y="90" stroke="#1c538e"></use>
        <use xlink:href="#SvgjsPath2324" x="690" y="150" stroke="#1c538e"></use>
        <use xlink:href="#SvgjsPath2327" x="690" y="210" stroke="#1c538e"></use>
        <use xlink:href="#SvgjsPath2327" x="690" y="270" stroke="#1c538e"></use>
        <use xlink:href="#SvgjsPath2325" x="690" y="330" stroke="#1c538e"></use>
        <use xlink:href="#SvgjsPath2322" x="690" y="390" stroke="#1c538e"></use>
        <use xlink:href="#SvgjsPath2324" x="690" y="450" stroke="#1c538e"></use>
        <use xlink:href="#SvgjsPath2324" x="690" y="510" stroke="#1c538e"></use>
        <use xlink:href="#SvgjsPath2325" x="690" y="570" stroke="#1c538e"></use>
        <use xlink:href="#SvgjsPath2325" x="690" y="630" stroke="#1c538e"></use>
        <use xlink:href="#SvgjsPath2324" x="690" y="690" stroke="#1c538e"></use>
    </symbol>
</svg>