<svg xmlns="http://www.w3.org/2000/svg" version="1.1" xmlns:xlink="http://www.w3.org/1999/xlink" xmlns:svgjs="http://svgjs.com/svgjs" width="1440" height="560" preserveAspectRatio="none" viewBox="0 0 1440 560">
    <g mask="url(&quot;#SvgjsMask1003&quot;)" fill="none">
        <rect width="1440" height="560" x="0" y="0" fill="rgba(204, 207, 211, 1)"></rect>
        <path d="M502.58 292.06L505.56 292.06L505.56 312.9L502.58 312.9z" stroke="rgba(249, 201, 5, 1)"></path>
        <path d="M596.88 226.41L607.74 226.41L607.74 237.27L596.88 237.27z" fill="#e73635"></path>
        <path d="M321.89 211.15L369.29 211.15L369.29 243.15L321.89 243.15z" stroke="#d3b714"></path>
        <path d="M893.7 57.24L893.84 57.24L893.84 57.38L893.7 57.38z" stroke="rgba(249, 201, 5, 1)"></path>
        <path d="M1249.73 208.7L1293.02 208.7L1293.02 258.29L1249.73 258.29z" stroke="rgba(249, 201, 5, 1)"></path>
        <path d="M748.21 189.69 a28.03 28.03 0 1 0 56.06 0 a28.03 28.03 0 1 0 -56.06 0z" stroke="#d3b714"></path>
        <path d="M1024.07 496.36L1039.86 496.36L1039.86 498.28L1024.07 498.28z" fill="rgba(249, 201, 5, 1)"></path>
        <path d="M407.38 407.51L442.38 407.51L442.38 443.49L407.38 443.49z" stroke="#e73635"></path>
        <path d="M961.39 22.58L985.43 22.58L985.43 76.41L961.39 76.41z" fill="#e73635"></path>
        <path d="M813.11 112.33a29.55 29.55 0 1 0-5.25 58.87z" fill="#d3b714"></path>
        <path d="M300.37 126.67 a53.43 53.43 0 1 0 106.86 0 a53.43 53.43 0 1 0 -106.86 0z" stroke="#e73635"></path>
        <path d="M156.78 204.33a25.22 25.22 0 1 0-46.85-18.68z" fill="rgba(249, 201, 5, 1)"></path>
        <path d="M344.21 159.16 a27.27 27.27 0 1 0 54.54 0 a27.27 27.27 0 1 0 -54.54 0z" stroke="#d3b714"></path>
        <path d="M595.19 562.94a43.22 43.22 0 1 0 50.64-70.05z" stroke="#e73635"></path>
        <path d="M788.08 268.87L796.92 268.87L796.92 277.71L788.08 277.71z" stroke="#e73635"></path>
        <path d="M858.53 504.4L881.5 504.4L881.5 536.43L858.53 536.43z" stroke="rgba(249, 201, 5, 1)"></path>
        <path d="M1212.85 141.09L1250.71 141.09L1250.71 141.21L1212.85 141.21z" stroke="rgba(249, 201, 5, 1)"></path>
        <path d="M379.66 345.17a39.64 39.64 0 1 0-74.42 27.33z" stroke="#e73635"></path>
        <path d="M543.56 149.3L579.36 149.3L579.36 152.69L543.56 152.69z" fill="#d3b714"></path>
        <path d="M1297.44 209.83a8.34 8.34 0 1 0 12.73-10.78z" stroke="#e73635"></path>
        <path d="M713.72 55.25 a23.03 23.03 0 1 0 46.06 0 a23.03 23.03 0 1 0 -46.06 0z" stroke="#d3b714"></path>
        <path d="M1046.27 35.64a13.48 13.48 0 1 0-4.19 26.63z" fill="rgba(249, 201, 5, 1)"></path>
        <path d="M1293.17 410.56 a29.16 29.16 0 1 0 58.32 0 a29.16 29.16 0 1 0 -58.32 0z" stroke="rgba(249, 201, 5, 1)"></path>
        <path d="M199.24 289.1L242.75 289.1L242.75 328.52L199.24 328.52z" fill="#d3b714"></path>
        <path d="M470.04 408.08L495.3 408.08L495.3 433.34L470.04 433.34z" fill="#d3b714"></path>
        <path d="M489.97 534.06a13 13 0 1 0 21.44-14.71z" fill="rgba(249, 201, 5, 1)"></path>
        <path d="M853.85 527.62 a18.15 18.15 0 1 0 36.3 0 a18.15 18.15 0 1 0 -36.3 0z" fill="#d3b714"></path>
        <path d="M1387.99 254.26 a40.96 40.96 0 1 0 81.92 0 a40.96 40.96 0 1 0 -81.92 0z" stroke="rgba(249, 201, 5, 1)"></path>
        <path d="M354.45 60.74 a22.74 22.74 0 1 0 45.48 0 a22.74 22.74 0 1 0 -45.48 0z" stroke="#e73635"></path>
        <path d="M725.7 144.89L732.54 144.89L732.54 149.35L725.7 149.35z" fill="#d3b714"></path>
        <path d="M275.26 108.74a39.66 39.66 0 1 0 44.14-65.91z" stroke="rgba(249, 201, 5, 1)"></path>
        <path d="M98.02 379.37 a9.33 9.33 0 1 0 18.66 0 a9.33 9.33 0 1 0 -18.66 0z" stroke="#e73635"></path>
        <path d="M494.82 189.69L543.81 189.69L543.81 213.62L494.82 213.62z" stroke="#e73635"></path>
    </g>
    <defs>
        <mask id="SvgjsMask1003">
            <rect width="1440" height="560" fill="#ffffff"></rect>
        </mask>
    </defs>
</svg>